<svg id="圖層_1" data-name="圖層 1" xmlns="http://www.w3.org/2000/svg" viewBox="0 0 354.94 249.61"><defs><style>.cls-1{fill:#1e1e1e;}.cls-2{fill:#f6bd4c;}.cls-3{fill:#fdfdfd;}</style></defs><title>未命名-1</title><rect class="cls-1" x="99" y="-23.05" width="156.94" height="288.02" rx="78.47" transform="translate(56.51 298.43) rotate(-90)"/><circle class="cls-2" cx="113.51" cy="121.02" r="62.4"/><path class="cls-3" d="M106.84,134.46c-6.26,0-12.51,0-18.76,0-.82,0-1.11.17-1.1,1.09,0,7.87.06,15.74,0,23.61,0,2.78-3,5.65-6.25,4.13a17.58,17.58,0,0,1-2.26-1.36,2.81,2.81,0,0,1-1.21-2.44c0-6.28,0-12.57,0-18.85a58.63,58.63,0,0,0-.1-7.62,26.06,26.06,0,0,1-.13-6.23c.26-2.36.09-4.69.2-7,.08-1.61,0-3.23,0-4.84a3.92,3.92,0,0,0-1.52-3.41c-1.32-1-2.53-2.15-3.77-3.25a2.53,2.53,0,0,1-.81-1.25,16.68,16.68,0,0,1-.61-2,3.28,3.28,0,0,1,3.56-3.68,2.8,2.8,0,0,1,2,.86c1,1.12,2.19,2.14,3.18,3.34a13.77,13.77,0,0,0,2.24,2.13,1.4,1.4,0,0,0,.92.23l8.35,0q12.1,0,24.19,0a3.56,3.56,0,0,1,1.68.5c3,1.64,6.22,3,9.2,4.73a71.32,71.32,0,0,0,7.21,3.61c2,.88,3.81,2,5.78,2.86.65.28,1.43.49,1.22,1.31-.15.58-.22,1.16-.35,1.74-.46,1.89-.91,3.8-1.33,5.7a19.72,19.72,0,0,1-1.06,3.67,12.19,12.19,0,0,0-.54,5c.06,5.14.39,10.27.3,15.41,0,2.39-.19,4.78-.16,7.17a2.41,2.41,0,0,1-.71,1.48c-.45.61-.52,1.41-1.21,1.89a5.22,5.22,0,0,1-6.69-.41,4.55,4.55,0,0,1-1.45-2.85,66,66,0,0,1-.22-10.61c.14-4.61,0-9.21.11-13.81,0-.65-.16-.88-.85-.87-6.35,0-12.69,0-19,0Z"/><path class="cls-3" d="M144.77,104.37c-1.34-.15-2.67.25-4,0-.68-.1-.9.33-.92,1-.08,2.54.36,5.06.3,7.6,0,1.17-.15,1.25-1.24.72q-6.82-3.3-13.64-6.6c-1.3-.63-2.55-1.37-3.84-2-.43-.21-.45-.43-.36-.85.27-1.31.9-2.49,1.27-3.76.78-2.73,2-5.3,2.79-8,.4-1.43,1-2.84,1.48-4.26a1.24,1.24,0,0,0,.13-.51,50.73,50.73,0,0,1-.11-5.78c0-1,0-2,0-2.94s.43-1.14,1.18-.74a10.63,10.63,0,0,1,3,2.25,13.29,13.29,0,0,1,2.16,3.14,1.4,1.4,0,0,0,1.52,1c.69,0,1.39.06,2.06,0,2.73-.35,5.16.61,7.59,1.61,3.26,1.35,6.49,2.75,9.78,4,.74.28,1.46.62,2.19.93.22.1.66.23.33.72a24.25,24.25,0,0,0-1.92,4.36c-1.12,2.75-2.36,5.44-4.94,7.2a6.33,6.33,0,0,1-2.81,1A16.19,16.19,0,0,1,144.77,104.37ZM142,91.32a2.12,2.12,0,0,0-1.94-2,2.2,2.2,0,0,0-2,1.94,2,2,0,0,0,1.88,2A1.89,1.89,0,0,0,142,91.32Z"/><path class="cls-3" d="M90.28,142.9c0-1.47,0-2.93,0-4.4,0-.82.32-1.12,1.12-1.08,1.2.05,2.4,0,3.59,0a1.81,1.81,0,0,1,1.68,1.05c1.22,2,2.23,4.14,3.37,6.2s2.06,3.9,3.06,5.86c.82,1.6,1.81,3.13,2.58,4.76.57,1.2,1.47,2.3,1.33,3.79a5,5,0,0,1-7,4.23c-1.75-.74-2.36-2.32-3.28-3.71-2.23-3.41-3.65-7.26-5.79-10.71a4.57,4.57,0,0,1-.62-2.61c0-1.14,0-2.27,0-3.41Z"/><path class="cls-3" d="M205,129.27h-4.27V112.58h4.76a19.8,19.8,0,0,1,3.94.27,4.78,4.78,0,0,1,1.9.94,5.08,5.08,0,0,1,1.4,1.89,7.09,7.09,0,0,1,0,5.18,4.13,4.13,0,0,1-1.4,1.87,4.22,4.22,0,0,1-1.68.79,13.14,13.14,0,0,1-3,.24H205Zm0-9.18h.87a4.18,4.18,0,0,0,2.29-.47,1.69,1.69,0,0,0,.65-1.51,1.71,1.71,0,0,0-.63-1.49,4.12,4.12,0,0,0-2.26-.45H205Z"/><path class="cls-3" d="M218.23,129.27,224,112.58h5.7l5.77,16.69h-4.53l-.84-3h-6.47l-.86,3Zm6.38-6.24h4.52l-1.7-5.5a8,8,0,0,1-.21-.83l-.36-1.42c-.1.39-.2.78-.27,1.17s-.23.74-.31,1.08Z"/><path class="cls-3" d="M241.72,129.27V112.58h4.55v12.79h5.65v3.9Z"/><path class="cls-3" d="M266.75,123.12v-3.5h8.93a1.87,1.87,0,0,0,0,.38v.6a9.3,9.3,0,0,1-2.26,6.68,8.45,8.45,0,0,1-6.41,2.38,10.3,10.3,0,0,1-3.6-.6,8,8,0,0,1-2.83-1.87,8.22,8.22,0,0,1-1.83-2.83,8.5,8.5,0,0,1-.5-1.71,9.45,9.45,0,0,1,.48-5.15,8.62,8.62,0,0,1,1.9-2.82,7.93,7.93,0,0,1,2.87-1.85,9.68,9.68,0,0,1,3.51-.63,9.29,9.29,0,0,1,4.32,1,7.54,7.54,0,0,1,1.19.74,7.78,7.78,0,0,1,1.09,1,9.22,9.22,0,0,1,.9,1.16L270.6,118A4.8,4.8,0,0,0,269,116.5a4.25,4.25,0,0,0-2-.47,4,4,0,0,0-3.2,1.36,5.5,5.5,0,0,0-1.16,3.73,5.6,5.6,0,0,0,1.16,3.76,4,4,0,0,0,3.2,1.35,4.67,4.67,0,0,0,2.88-.86,3.11,3.11,0,0,0,1.36-2.25Z"/><path class="cls-3" d="M300.29,121a8.85,8.85,0,0,1-.65,3.38,8.76,8.76,0,0,1-1.94,2.81,9,9,0,0,1-2.92,1.89,9,9,0,0,1-6.81,0,8.68,8.68,0,0,1-4.83-11.45,8.4,8.4,0,0,1,1.94-2.82,8.5,8.5,0,0,1,2.89-1.92,9.26,9.26,0,0,1,6.84,0,8.48,8.48,0,0,1,2.88,1.91,8.34,8.34,0,0,1,2.6,6.19Zm-8.92,4.9a4.07,4.07,0,0,0,3.15-1.4,4.54,4.54,0,0,0,.92-1.57,5.83,5.83,0,0,0,.3-1.93,5.15,5.15,0,0,0-1.24-3.5,4.05,4.05,0,0,0-3.13-1.41,4,4,0,0,0-3.13,1.41A5.1,5.1,0,0,0,287,121a5.05,5.05,0,0,0,1.21,3.52A4,4,0,0,0,291.37,125.86Z"/><path class="cls-1" d="M121.09,104.26c-.54,2-5.82,3.63-5.82,3.63L140.12,121l-.06-7.19Z"/></svg>