<?xml version="1.0" encoding="utf-8"?>
<svg version="1.1" xmlns:xlink="http://www.w3.org/1999/xlink" width="350px" height="50px" xmlns="http://www.w3.org/2000/svg">
  <g transform="matrix(1 0 0 1 -55 -222 )">
    <path d="M 56 225  A 2 2 0 0 1 58 223 L 402 223  A 2 2 0 0 1 404 225 L 404 269  A 2 2 0 0 1 402 271 L 58 271  A 2 2 0 0 1 56 269 L 56 225  Z " fill-rule="nonzero" fill="#ffffff" stroke="none" />
    <path d="M 55.5 225  A 2.5 2.5 0 0 1 58 222.5 L 402 222.5  A 2.5 2.5 0 0 1 404.5 225 L 404.5 269  A 2.5 2.5 0 0 1 402 271.5 L 58 271.5  A 2.5 2.5 0 0 1 55.5 269 L 55.5 225  Z " stroke-width="1" stroke="#cccccc" fill="none" stroke-opacity="0.698039215686274" />
  </g>
</svg>