<?xml version="1.0" encoding="utf-8"?>
<svg version="1.1" xmlns:xlink="http://www.w3.org/1999/xlink" width="356px" height="56px" xmlns="http://www.w3.org/2000/svg">
  <defs>
    <filter x="52px" y="219px" width="356px" height="56px" filterUnits="userSpaceOnUse" id="filter107">
      <feOffset dx="0" dy="0" in="SourceAlpha" result="shadowOffsetInner" />
      <feGaussianBlur stdDeviation="1.5" in="shadowOffsetInner" result="shadowGaussian" />
      <feComposite in2="shadowGaussian" operator="atop" in="SourceAlpha" result="shadowComposite" />
      <feColorMatrix type="matrix" values="0 0 0 0 0  0 0 0 0 0.474509803921569  0 0 0 0 0.996078431372549  0 0 0 0.8 0  " in="shadowComposite" />
    </filter>
    <g id="widget108">
      <path d="M 55.5 225  A 2.5 2.5 0 0 1 58 222.5 L 402 222.5  A 2.5 2.5 0 0 1 404.5 225 L 404.5 269  A 2.5 2.5 0 0 1 402 271.5 L 58 271.5  A 2.5 2.5 0 0 1 55.5 269 L 55.5 225  Z " fill-rule="nonzero" fill="#ffffff" stroke="none" />
      <path d="M 55.5 225  A 2.5 2.5 0 0 1 58 222.5 L 402 222.5  A 2.5 2.5 0 0 1 404.5 225 L 404.5 269  A 2.5 2.5 0 0 1 402 271.5 L 58 271.5  A 2.5 2.5 0 0 1 55.5 269 L 55.5 225  Z " stroke-width="1" stroke="#0079fe" fill="none" />
    </g>
  </defs>
  <g transform="matrix(1 0 0 1 -52 -219 )">
    <use xlink:href="#widget108" filter="url(#filter107)" />
    <use xlink:href="#widget108" />
  </g>
</svg>