<svg xmlns="http://www.w3.org/2000/svg" viewBox="0 0 1920 1080"><defs><style>.cls-1{fill:#1e1e1e;}.cls-2{fill:#f6bd4c;}.cls-3{fill:#fdfdfd;}.cls-4{fill:#efefef;}</style></defs><g id="图层_2" data-name="图层 2"><g id="圖層_1" data-name="圖層 1"><rect class="cls-1" width="1920" height="1080"/><rect class="cls-2" x="802.08" y="210.04" width="315.84" height="471.96" rx="157.92"/><circle class="cls-3" cx="960" cy="376.77" r="125.58"/><path class="cls-1" d="M946.58,403.81c-12.59,0-25.17,0-37.76,0-1.65,0-2.22.36-2.21,2.2.09,15.84.13,31.68,0,47.51-.05,5.6-6,11.37-12.58,8.31a32.71,32.71,0,0,1-4.54-2.73,5.64,5.64,0,0,1-2.44-4.91c0-12.65,0-25.29,0-37.94,0-5.12.47-10.3-.19-15.33a51.7,51.7,0,0,1-.27-12.53c.52-4.76.18-9.46.41-14.18.16-3.24,0-6.5,0-9.75,0-2.73-.72-5.06-3.07-6.85-2.65-2-5.08-4.33-7.58-6.55a5,5,0,0,1-1.64-2.5,34,34,0,0,1-1.22-4.08,6.62,6.62,0,0,1,7.16-7.41,5.74,5.74,0,0,1,4,1.74c2.1,2.26,4.4,4.31,6.39,6.71a27.54,27.54,0,0,0,4.51,4.3,2.81,2.81,0,0,0,1.87.46l16.8.05q24.33,0,48.67,0a7.24,7.24,0,0,1,3.38,1c6.11,3.3,12.52,6,18.52,9.53a146.62,146.62,0,0,0,14.51,7.27c4,1.76,7.66,4,11.62,5.74,1.32.58,2.88,1,2.46,2.65-.29,1.16-.43,2.33-.7,3.49q-1.39,5.73-2.67,11.49a40.55,40.55,0,0,1-2.13,7.37c-1.37,3.23-1.13,6.73-1.09,10.1.13,10.34.78,20.68.6,31-.08,4.8-.37,9.61-.32,14.42,0,1.31-.81,2.14-1.44,3-.9,1.21-1,2.83-2.42,3.8a10.52,10.52,0,0,1-13.47-.84,9.22,9.22,0,0,1-2.92-5.73c-.92-7.11-.66-14.25-.45-21.36.28-9.27,0-18.53.23-27.79,0-1.31-.32-1.76-1.71-1.75-12.77.05-25.54,0-38.3,0Z"/><path class="cls-1" d="M1022.91,343.26c-2.69-.3-5.37.5-8.07.08-1.38-.21-1.82.67-1.86,2-.16,5.12.72,10.19.61,15.3-.06,2.37-.3,2.51-2.51,1.45-9.15-4.43-18.31-8.82-27.45-13.27-2.62-1.28-5.13-2.76-7.73-4.05-.86-.43-.9-.88-.73-1.71.55-2.63,1.82-5,2.56-7.58,1.58-5.49,4-10.66,5.61-16.18.82-2.87,2-5.71,3-8.57a2.51,2.51,0,0,0,.25-1c-.61-3.87-.07-7.76-.21-11.63-.07-2-.09-3.93-.1-5.9,0-1.72.85-2.31,2.36-1.5a20.91,20.91,0,0,1,6.11,4.53,26.62,26.62,0,0,1,4.36,6.31,2.85,2.85,0,0,0,3.07,2c1.37-.12,2.78.12,4.14-.06,5.49-.7,10.39,1.24,15.28,3.26,6.55,2.7,13.05,5.51,19.67,8,1.49.57,2.94,1.24,4.4,1.87.44.2,1.33.46.68,1.45-1.77,2.71-2.67,5.8-3.88,8.77-2.25,5.54-4.75,11-9.93,14.5a12.61,12.61,0,0,1-5.66,1.92A30.91,30.91,0,0,1,1022.91,343.26ZM1017.24,317a4.27,4.27,0,0,0-3.89-4.14,4.47,4.47,0,0,0-4,3.91,4.06,4.06,0,0,0,3.81,4A3.78,3.78,0,0,0,1017.24,317Z"/><path class="cls-1" d="M913.25,420.8c0-2.95,0-5.9,0-8.85,0-1.66.64-2.25,2.26-2.18,2.41.1,4.82.06,7.23.05a3.65,3.65,0,0,1,3.37,2.13c2.46,4.05,4.5,8.33,6.79,12.47,2.14,3.86,4.14,7.84,6.16,11.79,1.65,3.23,3.64,6.3,5.19,9.58,1.15,2.42,3,4.63,2.67,7.63a10,10,0,0,1-14.17,8.52c-3.52-1.49-4.75-4.67-6.59-7.47-4.5-6.86-7.36-14.61-11.65-21.56a9.06,9.06,0,0,1-1.25-5.25c0-2.28,0-4.57,0-6.86Z"/><path class="cls-3" d="M869.11,571.34h-8.6V537.75h9.58a39.73,39.73,0,0,1,7.92.55,9.63,9.63,0,0,1,3.83,1.89,10.1,10.1,0,0,1,2.82,3.8,14.26,14.26,0,0,1,0,10.44,8.46,8.46,0,0,1-2.82,3.76,8.62,8.62,0,0,1-3.37,1.58,26.08,26.08,0,0,1-6.15.49h-3.21Zm0-18.47h1.74c2.18,0,3.71-.31,4.61-.94a3.38,3.38,0,0,0,1.31-3,3.44,3.44,0,0,0-1.27-3c-.85-.6-2.37-.9-4.55-.9h-1.84Z"/><path class="cls-3" d="M895.76,571.34l11.58-33.59h11.47l11.61,33.59h-9.11l-1.7-6h-13l-1.75,6Zm12.82-12.55h9.11l-3.42-11.08c-.08-.2-.22-.75-.44-1.65-.26-1.06-.49-2-.71-2.87-.21.78-.4,1.57-.55,2.36s-.45,1.49-.62,2.16Z"/><path class="cls-3" d="M943,571.34V537.75h9.15v25.74h11.38v7.85Z"/><path class="cls-3" d="M993.39,559v-7h18a5,5,0,0,0,0,.76v1.21q0,8.7-4.54,13.44t-12.9,4.8a20.73,20.73,0,0,1-7.25-1.22,16,16,0,0,1-5.68-3.76,17,17,0,0,1-3.7-5.69,18.63,18.63,0,0,1-1.32-6.9,18.27,18.27,0,0,1,1.28-6.91,17.79,17.79,0,0,1,3.83-5.69,16.23,16.23,0,0,1,5.77-3.71A19.69,19.69,0,0,1,994,537a18.57,18.57,0,0,1,8.71,2,15.41,15.41,0,0,1,2.4,1.48,16.23,16.23,0,0,1,2.18,2,18.28,18.28,0,0,1,1.82,2.34l-7.94,3.81a9.84,9.84,0,0,0-3.18-2.91,8.52,8.52,0,0,0-4-.95,8,8,0,0,0-6.44,2.73q-2.34,2.72-2.34,7.51a11.29,11.29,0,0,0,2.34,7.56,8,8,0,0,0,6.44,2.73,9.35,9.35,0,0,0,5.81-1.74,6.34,6.34,0,0,0,2.73-4.52Z"/><path class="cls-3" d="M1060.89,554.61a16.78,16.78,0,0,1-5.2,12.46,18.22,18.22,0,0,1-5.87,3.81,18.77,18.77,0,0,1-6.86,1.35,18.52,18.52,0,0,1-6.85-1.35,17.86,17.86,0,0,1-9.72-9.5,17.27,17.27,0,0,1,0-13.53,17,17,0,0,1,3.9-5.69,17.37,17.37,0,0,1,5.82-3.86A18,18,0,0,1,1043,537a18.18,18.18,0,0,1,6.9,1.32,18,18,0,0,1,9.72,9.53A17.37,17.37,0,0,1,1060.89,554.61ZM1043,564.48a8.16,8.16,0,0,0,6.33-2.82,8.94,8.94,0,0,0,1.86-3.15,11.91,11.91,0,0,0,.6-3.9,10.31,10.31,0,0,0-2.5-7,8.15,8.15,0,0,0-6.29-2.82,8,8,0,0,0-6.3,2.82,11.39,11.39,0,0,0-.05,14.13A8.16,8.16,0,0,0,1043,564.48Z"/><path class="cls-2" d="M975.26,343c-1.09,4-11.71,7.32-11.71,7.32l50,26.29-.12-14.46Z"/><path class="cls-4" d="M670.45,793.22h24.21v6.36h-8.12V819h-8V799.58h-8.12Z"/><path class="cls-4" d="M701.67,809.71a9.35,9.35,0,0,1,2.88-7,10.75,10.75,0,0,1,7.78-2.77c3.74,0,6.57,1.09,8.48,3.25a9.46,9.46,0,0,1,2.3,6.45,9.34,9.34,0,0,1-2.86,7.06c-1.9,1.84-4.53,2.75-7.9,2.75a11.08,11.08,0,0,1-7.27-2.28A9.16,9.16,0,0,1,701.67,809.71Zm7.17,0a5.57,5.57,0,0,0,1,3.69,3.31,3.31,0,0,0,5.08,0,5.82,5.82,0,0,0,1-3.78,5.48,5.48,0,0,0-1-3.61,3.14,3.14,0,0,0-2.48-1.19,3.22,3.22,0,0,0-2.58,1.21A5.55,5.55,0,0,0,708.84,809.69Z"/><path class="cls-4" d="M753.75,793.22h8V819h-8Z"/><path class="cls-4" d="M774.22,800.32h6.68v2.73a9.4,9.4,0,0,1,2.92-2.43,8,8,0,0,1,3.54-.72,6.88,6.88,0,0,1,3.54.79,5.85,5.85,0,0,1,2.13,2.36,10.92,10.92,0,0,1,3.07-2.49,8,8,0,0,1,3.43-.66,6.12,6.12,0,0,1,4.68,1.79q1.69,1.78,1.69,5.58V819h-7.17V808.36a3,3,0,0,0-.49-1.88,2.15,2.15,0,0,0-1.79-1,2.51,2.51,0,0,0-2,.91,4.5,4.5,0,0,0-.77,2.94V819h-7.17V808.71a6.06,6.06,0,0,0-.15-1.67,2.25,2.25,0,0,0-.79-1.14,2.17,2.17,0,0,0-1.32-.43,2.52,2.52,0,0,0-2,.94,4.69,4.69,0,0,0-.79,3.05V819h-7.18Z"/><path class="cls-4" d="M817.41,826.09V800.32h6.69v2.76a9,9,0,0,1,2.55-2.35,7.35,7.35,0,0,1,3.47-.83,6.71,6.71,0,0,1,5.79,2.87,11.9,11.9,0,0,1,2.05,7.08q0,4.67-2.24,7.11a7.28,7.28,0,0,1-5.64,2.45,7.69,7.69,0,0,1-3-.56,7.14,7.14,0,0,1-2.44-1.67v8.91Zm7.17-16.38a4.93,4.93,0,0,0,.93,3.29,3,3,0,0,0,2.36,1.07,2.6,2.6,0,0,0,2.09-1,5.58,5.58,0,0,0,.84-3.49,5.16,5.16,0,0,0-.88-3.33,2.67,2.67,0,0,0-2.14-1.06,2.86,2.86,0,0,0-2.29,1.07A5.32,5.32,0,0,0,824.58,809.71Z"/><path class="cls-4" d="M847.21,806.83h10.41v5.53H847.21Z"/><path class="cls-4" d="M867.84,800.32h6.7v3.06a7.33,7.33,0,0,1,2-2.73,4.22,4.22,0,0,1,2.54-.75,7.55,7.55,0,0,1,3.47,1L880.32,806a5.59,5.59,0,0,0-2-.52,2.45,2.45,0,0,0-2.18,1.16q-1.11,1.64-1.11,6.11V819h-7.19Z"/><path class="cls-4" d="M911.81,819h-6.68v-3a9.85,9.85,0,0,1-3,2.65,8,8,0,0,1-3.74.79,6.12,6.12,0,0,1-4.63-1.76q-1.68-1.77-1.68-5.44V800.32h7.19v10.27a3.78,3.78,0,0,0,.65,2.49,2.3,2.3,0,0,0,1.83.74,2.58,2.58,0,0,0,2.1-1,5.66,5.66,0,0,0,.82-3.53v-9h7.15Z"/><path class="cls-4" d="M931.32,800.32h3.41v5.24h-3.41V819h-7.17V805.56h-2.67v-5.24h2.67v-.84a14.61,14.61,0,0,1,.24-2.51,5.14,5.14,0,0,1,.93-2.25,4.78,4.78,0,0,1,1.89-1.4,9.24,9.24,0,0,1,3.58-.54,49.37,49.37,0,0,1,5.47.44l-.79,4.33a13.76,13.76,0,0,0-2.08-.22,2.31,2.31,0,0,0-1.39.33,1.77,1.77,0,0,0-.59,1A9.09,9.09,0,0,0,931.32,800.32Z"/><path class="cls-4" d="M953.43,800.32h3.41v5.24h-3.41V819h-7.18V805.56h-2.67v-5.24h2.67v-.84a14.68,14.68,0,0,1,.25-2.51,5,5,0,0,1,.92-2.25,4.81,4.81,0,0,1,1.9-1.4,9.24,9.24,0,0,1,3.58-.54,49.73,49.73,0,0,1,5.47.44l-.8,4.33a13.53,13.53,0,0,0-2.07-.22,2.29,2.29,0,0,0-1.39.33,1.83,1.83,0,0,0-.6,1A10.64,10.64,0,0,0,953.43,800.32Z"/><path class="cls-4" d="M985.84,793.22h8.85l5.19,8.7,5.2-8.7h8.8l-10,15V819h-8V808.2Z"/><path class="cls-4" d="M1019.23,809.71a9.36,9.36,0,0,1,2.89-7,10.73,10.73,0,0,1,7.78-2.77c3.74,0,6.57,1.09,8.48,3.25a9.46,9.46,0,0,1,2.3,6.45,9.34,9.34,0,0,1-2.86,7.06c-1.9,1.84-4.53,2.75-7.9,2.75a11.13,11.13,0,0,1-7.28-2.28A9.19,9.19,0,0,1,1019.23,809.71Zm7.18,0a5.57,5.57,0,0,0,1,3.69,3.31,3.31,0,0,0,5.08,0,5.82,5.82,0,0,0,1-3.78,5.48,5.48,0,0,0-1-3.61,3.14,3.14,0,0,0-2.48-1.19,3.22,3.22,0,0,0-2.58,1.21A5.55,5.55,0,0,0,1026.41,809.69Z"/><path class="cls-4" d="M1071,819h-6.68v-3a10,10,0,0,1-3,2.65,8,8,0,0,1-3.73.79,6.13,6.13,0,0,1-4.64-1.76q-1.68-1.77-1.68-5.44V800.32h7.19v10.27a3.78,3.78,0,0,0,.65,2.49,2.3,2.3,0,0,0,1.83.74,2.58,2.58,0,0,0,2.1-1,5.66,5.66,0,0,0,.82-3.53v-9H1071Z"/><path class="cls-4" d="M1082.61,800.32h6.69v3.06a7.34,7.34,0,0,1,2-2.73,4.2,4.2,0,0,1,2.54-.75,7.51,7.51,0,0,1,3.46,1l-2.21,5.09a5.63,5.63,0,0,0-2-.52,2.47,2.47,0,0,0-2.18,1.16q-1.1,1.64-1.1,6.11V819h-7.19Z"/><path class="cls-4" d="M1125.31,793.22h10.47l4,15.68,4-15.68h10.46V819h-6.52V799.34l-5,19.65h-5.9l-5-19.65V819h-6.52Z"/><path class="cls-4" d="M1165.22,809.71a9.35,9.35,0,0,1,2.88-7,10.77,10.77,0,0,1,7.79-2.77c3.74,0,6.56,1.09,8.47,3.25a10.15,10.15,0,0,1-.55,13.51c-1.9,1.84-4.54,2.75-7.9,2.75a11.11,11.11,0,0,1-7.28-2.28A9.19,9.19,0,0,1,1165.22,809.71Zm7.17,0a5.63,5.63,0,0,0,1,3.69,3.31,3.31,0,0,0,5.08,0,5.76,5.76,0,0,0,1-3.78,5.48,5.48,0,0,0-1-3.61,3.1,3.1,0,0,0-2.47-1.19,3.23,3.23,0,0,0-2.59,1.21A5.55,5.55,0,0,0,1172.39,809.69Z"/><path class="cls-4" d="M1196.43,809.71a9.32,9.32,0,0,1,2.89-7,10.73,10.73,0,0,1,7.78-2.77c3.74,0,6.57,1.09,8.48,3.25a9.46,9.46,0,0,1,2.3,6.45,9.34,9.34,0,0,1-2.86,7.06c-1.9,1.84-4.54,2.75-7.9,2.75a11.11,11.11,0,0,1-7.28-2.28A9.19,9.19,0,0,1,1196.43,809.71Zm7.17,0a5.57,5.57,0,0,0,1,3.69,3.31,3.31,0,0,0,5.08,0,5.82,5.82,0,0,0,1-3.78,5.53,5.53,0,0,0-1-3.61,3.14,3.14,0,0,0-2.48-1.19,3.24,3.24,0,0,0-2.59,1.21A5.55,5.55,0,0,0,1203.6,809.69Z"/><path class="cls-4" d="M1248.18,793.22V819h-6.7v-2.76a9,9,0,0,1-2.57,2.37,7.3,7.3,0,0,1-3.44.81,6.63,6.63,0,0,1-5.83-2.9,12.06,12.06,0,0,1-2-7q0-4.63,2.22-7.1a7.28,7.28,0,0,1,5.65-2.46,7.9,7.9,0,0,1,3,.56,6.93,6.93,0,0,1,2.42,1.69v-8.93ZM1241,809.6a4.91,4.91,0,0,0-.93-3.27,3,3,0,0,0-2.35-1.08,2.61,2.61,0,0,0-2.1,1,5.59,5.59,0,0,0-.84,3.48,5.25,5.25,0,0,0,.87,3.35,2.67,2.67,0,0,0,2.15,1.06,2.86,2.86,0,0,0,2.29-1.07A5.36,5.36,0,0,0,1241,809.6Z"/></g></g></svg>