<svg id="圖層_1" data-name="圖層 1" xmlns="http://www.w3.org/2000/svg" viewBox="0 0 354.94 249.61"><defs><style>.cls-1{fill:#1e1e1e;}.cls-2{fill:#f6bd4c;}.cls-3{fill:#fdfdfd;}</style></defs><title>未命名-1</title><rect class="cls-1" x="99" y="11.41" width="156.94" height="234.51" rx="78.47"/><circle class="cls-2" cx="177.47" cy="94.25" r="62.4"/><path class="cls-3" d="M170.8,107.69c-6.25,0-12.51,0-18.76,0-.82,0-1.1.17-1.1,1.09,0,7.87.07,15.74,0,23.61,0,2.78-3,5.65-6.25,4.13a16.8,16.8,0,0,1-2.25-1.36,2.79,2.79,0,0,1-1.22-2.44c0-6.28,0-12.57,0-18.85a60.46,60.46,0,0,0-.1-7.62A26.07,26.07,0,0,1,141,100c.26-2.36.09-4.69.21-7,.08-1.61,0-3.23,0-4.85a4,4,0,0,0-1.53-3.4c-1.31-1-2.52-2.15-3.76-3.26a2.41,2.41,0,0,1-.82-1.24,15,15,0,0,1-.6-2A3.28,3.28,0,0,1,138,74.52a2.84,2.84,0,0,1,2,.86c1,1.12,2.18,2.14,3.17,3.34a13.77,13.77,0,0,0,2.24,2.13,1.43,1.43,0,0,0,.93.23l8.35,0q12.09,0,24.18,0a3.49,3.49,0,0,1,1.68.5c3,1.64,6.22,3,9.2,4.73A72.39,72.39,0,0,0,197,89.94c2,.88,3.81,2,5.78,2.86.66.28,1.43.49,1.22,1.31-.15.58-.21,1.16-.35,1.73-.46,1.9-.9,3.81-1.32,5.71a21.38,21.38,0,0,1-1.06,3.67,12,12,0,0,0-.55,5c.07,5.13.39,10.27.3,15.41,0,2.39-.18,4.78-.16,7.17a2.41,2.41,0,0,1-.71,1.48c-.45.61-.52,1.41-1.2,1.89a5.23,5.23,0,0,1-6.7-.41,4.65,4.65,0,0,1-1.45-2.85,66,66,0,0,1-.22-10.61c.14-4.61,0-9.21.11-13.81,0-.65-.16-.88-.85-.87-6.34,0-12.69,0-19,0Z"/><path class="cls-3" d="M208.73,77.6c-1.34-.15-2.67.25-4,0-.69-.1-.9.33-.92,1-.08,2.54.35,5.06.3,7.6,0,1.17-.15,1.24-1.25.71-4.54-2.19-9.1-4.38-13.64-6.59-1.3-.63-2.55-1.37-3.84-2-.43-.21-.45-.44-.36-.85.27-1.31.9-2.49,1.27-3.76.78-2.73,2-5.3,2.79-8,.41-1.43,1-2.84,1.49-4.26a1.27,1.27,0,0,0,.12-.52,48.32,48.32,0,0,1-.1-5.77c0-1-.05-2-.05-2.94s.42-1.14,1.17-.74a10.5,10.5,0,0,1,3,2.25,13.29,13.29,0,0,1,2.16,3.14,1.42,1.42,0,0,0,1.53,1c.68,0,1.38.06,2.06,0,2.72-.36,5.16.61,7.59,1.61,3.25,1.34,6.48,2.74,9.77,4,.74.28,1.46.61,2.19.93.22.1.66.23.34.72a24.29,24.29,0,0,0-1.93,4.36c-1.12,2.75-2.36,5.44-4.94,7.2a6.29,6.29,0,0,1-2.81,1A16.18,16.18,0,0,1,208.73,77.6Zm-2.82-13a2.1,2.1,0,0,0-1.93-2,2.21,2.21,0,0,0-2,1.94,2,2,0,0,0,1.89,2A1.88,1.88,0,0,0,205.91,64.55Z"/><path class="cls-3" d="M154.24,116.13c0-1.47,0-2.93,0-4.4,0-.82.32-1.12,1.13-1.08,1.19,0,2.39,0,3.59,0a1.82,1.82,0,0,1,1.67,1.06c1.22,2,2.24,4.14,3.38,6.2s2.05,3.89,3.06,5.86c.82,1.6,1.8,3.13,2.58,4.76.57,1.2,1.46,2.3,1.32,3.79a5,5,0,0,1-7,4.23c-1.75-.74-2.36-2.32-3.27-3.71-2.24-3.41-3.66-7.26-5.8-10.71a4.56,4.56,0,0,1-.61-2.61v-3.41Z"/><path class="cls-3" d="M132.31,190.93H128V174.24h4.76a18.8,18.8,0,0,1,3.94.28,4.57,4.57,0,0,1,1.9.93,5.11,5.11,0,0,1,1.41,1.89,7.12,7.12,0,0,1,0,5.19,4.26,4.26,0,0,1-1.41,1.87,4.37,4.37,0,0,1-1.67.78,13.25,13.25,0,0,1-3.06.24h-1.59Zm0-9.18h.86a4.24,4.24,0,0,0,2.3-.46,2.08,2.08,0,0,0,0-3,4.09,4.09,0,0,0-2.26-.45h-.91Z"/><path class="cls-3" d="M145.55,190.93l5.75-16.69H157l5.77,16.69h-4.52l-.85-3h-6.46l-.87,3Zm6.37-6.24h4.53l-1.7-5.5c0-.1-.11-.37-.22-.82s-.25-1-.35-1.43c-.11.39-.2.78-.28,1.18s-.22.73-.3,1.07Z"/><path class="cls-3" d="M169,190.93V174.24h4.54V187h5.66v3.9Z"/><path class="cls-3" d="M194.06,184.79v-3.5H203a1.89,1.89,0,0,0,0,.37v.61a9.27,9.27,0,0,1-2.26,6.68,8.46,8.46,0,0,1-6.41,2.38,10.15,10.15,0,0,1-3.6-.61,7.78,7.78,0,0,1-2.82-1.87,8.45,8.45,0,0,1-1.84-2.82,9.27,9.27,0,0,1-.66-3.43,9.18,9.18,0,0,1,.64-3.43,9,9,0,0,1,1.9-2.83,8.15,8.15,0,0,1,2.87-1.85,9.75,9.75,0,0,1,3.51-.62,9.18,9.18,0,0,1,4.33,1,7.19,7.19,0,0,1,1.19.73,7.71,7.71,0,0,1,1.08,1,8.79,8.79,0,0,1,.91,1.16l-4,1.89a5,5,0,0,0-1.58-1.45,4.25,4.25,0,0,0-2-.46,4,4,0,0,0-3.21,1.35,5.55,5.55,0,0,0-1.16,3.73,5.64,5.64,0,0,0,1.16,3.76,4,4,0,0,0,3.21,1.36,4.61,4.61,0,0,0,2.88-.87,3.18,3.18,0,0,0,1.36-2.24Z"/><path class="cls-3" d="M227.6,182.62a8.33,8.33,0,0,1-2.58,6.19,9.06,9.06,0,0,1-2.92,1.89,9.27,9.27,0,0,1-3.41.67,9.15,9.15,0,0,1-3.4-.67,8.53,8.53,0,0,1-2.89-1.89,8.3,8.3,0,0,1-1.94-2.83,8.64,8.64,0,0,1,0-6.72,8.3,8.3,0,0,1,1.94-2.83,8.52,8.52,0,0,1,2.89-1.91,8.8,8.8,0,0,1,3.4-.65,8.82,8.82,0,0,1,6.32,2.56,8.83,8.83,0,0,1,1.94,2.83A8.6,8.6,0,0,1,227.6,182.62Zm-8.91,4.9a4.07,4.07,0,0,0,3.14-1.4,4.44,4.44,0,0,0,.93-1.56,5.94,5.94,0,0,0,.29-1.94,5.1,5.1,0,0,0-1.24-3.5,4.2,4.2,0,0,0-6.26,0,5.66,5.66,0,0,0,0,7A4.06,4.06,0,0,0,218.69,187.52Z"/><path class="cls-1" d="M185.05,77.49c-.54,2-5.82,3.63-5.82,3.63l24.86,13.07L204,87Z"/></svg>