<svg id="圖層_1" data-name="圖層 1" xmlns="http://www.w3.org/2000/svg" viewBox="0 0 354.94 249.61"><defs><style>.cls-1{fill:#f6bd4c;}.cls-2{fill:#fdfdfd;}.cls-3{fill:#1e1e1e;}</style></defs><title>未命名-1</title><rect class="cls-1" x="99" y="-20.18" width="156.94" height="288.02" rx="78.47" transform="translate(53.64 301.3) rotate(-90)"/><circle class="cls-2" cx="113.51" cy="123.89" r="62.4"/><path class="cls-3" d="M106.84,137.33c-6.26,0-12.51,0-18.76,0-.82,0-1.11.18-1.1,1.1,0,7.86.06,15.73,0,23.6,0,2.78-3,5.65-6.25,4.13a15.57,15.57,0,0,1-2.26-1.36,2.8,2.8,0,0,1-1.21-2.44c0-6.28,0-12.56,0-18.85a58.63,58.63,0,0,0-.1-7.62,26,26,0,0,1-.13-6.22c.26-2.36.09-4.7.2-7,.08-1.62,0-3.24,0-4.85a3.92,3.92,0,0,0-1.52-3.41c-1.32-1-2.53-2.15-3.77-3.25a2.5,2.5,0,0,1-.81-1.24,16.83,16.83,0,0,1-.61-2,3.29,3.29,0,0,1,3.56-3.68,2.84,2.84,0,0,1,2,.86c1,1.13,2.19,2.14,3.18,3.34a13.77,13.77,0,0,0,2.24,2.13,1.34,1.34,0,0,0,.92.23l8.35,0q12.1,0,24.19,0a3.44,3.44,0,0,1,1.68.49c3,1.64,6.22,3,9.2,4.73a73.56,73.56,0,0,0,7.21,3.62c2,.87,3.81,2,5.78,2.85.65.29,1.43.49,1.22,1.32-.15.57-.22,1.16-.35,1.73-.46,1.9-.91,3.8-1.33,5.71a19.62,19.62,0,0,1-1.06,3.66,12.23,12.23,0,0,0-.54,5c.06,5.14.39,10.27.3,15.41,0,2.39-.19,4.78-.16,7.17a2.44,2.44,0,0,1-.71,1.49c-.45.6-.52,1.41-1.21,1.89a5.23,5.23,0,0,1-6.69-.42,4.52,4.52,0,0,1-1.45-2.85,66,66,0,0,1-.22-10.61c.14-4.6,0-9.21.11-13.81,0-.65-.16-.87-.85-.87-6.35,0-12.69,0-19,0Z"/><path class="cls-3" d="M144.77,107.25c-1.34-.15-2.67.24-4,0-.68-.11-.9.33-.92,1-.08,2.54.36,5.06.3,7.6,0,1.18-.15,1.25-1.24.72-4.55-2.2-9.1-4.38-13.64-6.59-1.3-.64-2.55-1.38-3.84-2-.43-.21-.45-.43-.36-.84.27-1.31.9-2.49,1.27-3.77.78-2.73,2-5.3,2.79-8,.4-1.43,1-2.84,1.48-4.26a1.24,1.24,0,0,0,.13-.51,50.69,50.69,0,0,1-.11-5.78c0-1,0-2,0-2.93s.43-1.15,1.18-.74a10.42,10.42,0,0,1,3,2.24,13.29,13.29,0,0,1,2.16,3.14,1.41,1.41,0,0,0,1.52,1c.69-.06,1.39.06,2.06,0,2.73-.35,5.16.61,7.59,1.62,3.26,1.34,6.49,2.74,9.78,4,.74.29,1.46.62,2.19.93.22.1.66.23.33.72a24.89,24.89,0,0,0-1.92,4.36c-1.12,2.76-2.36,5.44-4.94,7.2a6.21,6.21,0,0,1-2.81,1A16.19,16.19,0,0,1,144.77,107.25ZM142,94.19a2.12,2.12,0,0,0-1.94-2,2.2,2.2,0,0,0-2,1.94,2,2,0,0,0,1.88,2A1.89,1.89,0,0,0,142,94.19Z"/><path class="cls-3" d="M90.28,145.77c0-1.46,0-2.93,0-4.39,0-.83.32-1.12,1.12-1.09,1.2.05,2.4,0,3.59,0a1.82,1.82,0,0,1,1.68,1.06c1.22,2,2.23,4.14,3.37,6.19s2.06,3.9,3.06,5.86c.82,1.61,1.81,3.13,2.58,4.76.57,1.2,1.47,2.3,1.33,3.79a5,5,0,0,1-7,4.24c-1.75-.75-2.36-2.32-3.28-3.72-2.23-3.4-3.65-7.25-5.79-10.71a4.55,4.55,0,0,1-.62-2.61c0-1.13,0-2.27,0-3.41Z"/><path class="cls-2" d="M205,132.14h-4.27V115.45h4.76a18.87,18.87,0,0,1,3.94.28,4.64,4.64,0,0,1,1.9.93,5.08,5.08,0,0,1,1.4,1.89,7.12,7.12,0,0,1,0,5.19,4.23,4.23,0,0,1-1.4,1.87,4.35,4.35,0,0,1-1.68.78,13.14,13.14,0,0,1-3,.24H205Zm0-9.18h.87a4.2,4.2,0,0,0,2.29-.46,2.09,2.09,0,0,0,0-3,4.12,4.12,0,0,0-2.26-.45H205Z"/><path class="cls-2" d="M218.23,132.14,224,115.45h5.7l5.77,16.69h-4.53l-.84-3h-6.47l-.86,3Zm6.38-6.24h4.52l-1.7-5.5a7.51,7.51,0,0,1-.21-.82c-.13-.53-.25-1-.36-1.43-.1.39-.2.78-.27,1.18s-.23.73-.31,1.07Z"/><path class="cls-2" d="M241.72,132.14V115.45h4.55v12.79h5.65v3.9Z"/><path class="cls-2" d="M266.75,126v-3.5h8.93a1.77,1.77,0,0,0,0,.37v.61a9.31,9.31,0,0,1-2.26,6.68,8.49,8.49,0,0,1-6.41,2.38,10.07,10.07,0,0,1-3.6-.61,7.9,7.9,0,0,1-2.83-1.87,8.27,8.27,0,0,1-1.83-2.82,8.4,8.4,0,0,1-.5-1.72,9.41,9.41,0,0,1,.48-5.14,8.65,8.65,0,0,1,1.9-2.83,8.06,8.06,0,0,1,2.87-1.85,9.67,9.67,0,0,1,3.51-.62,9.17,9.17,0,0,1,4.32,1,6.8,6.8,0,0,1,1.19.73,7.26,7.26,0,0,1,1.09,1,8,8,0,0,1,.9,1.16l-3.94,1.89a4.8,4.8,0,0,0-1.59-1.45,4.25,4.25,0,0,0-2-.46,4,4,0,0,0-3.2,1.35,5.5,5.5,0,0,0-1.16,3.73,5.6,5.6,0,0,0,1.16,3.76,4,4,0,0,0,3.2,1.36,4.61,4.61,0,0,0,2.88-.87,3.11,3.11,0,0,0,1.36-2.24Z"/><path class="cls-2" d="M300.29,123.83a8.77,8.77,0,0,1-.65,3.38A8.65,8.65,0,0,1,297.7,130a9,9,0,0,1-2.92,1.89,9,9,0,0,1-6.81,0,8.62,8.62,0,0,1-2.89-1.89,8.44,8.44,0,0,1-1.94-2.83,8.64,8.64,0,0,1,0-6.72,9,9,0,0,1,4.83-4.74,8.85,8.85,0,0,1,3.41-.65,9,9,0,0,1,3.43.65,8.63,8.63,0,0,1,2.88,1.91,8.38,8.38,0,0,1,2.6,6.19Zm-8.92,4.9a4.07,4.07,0,0,0,3.15-1.4,4.5,4.5,0,0,0,.92-1.56,5.94,5.94,0,0,0,.3-1.94,5.15,5.15,0,0,0-1.24-3.5,4.08,4.08,0,0,0-3.13-1.4,4,4,0,0,0-3.13,1.4,5.1,5.1,0,0,0-1.23,3.5,5,5,0,0,0,1.21,3.52A4,4,0,0,0,291.37,128.73Z"/><path class="cls-1" d="M121.09,107.13c-.54,2-5.82,3.64-5.82,3.64l24.85,13.06-.06-7.18Z"/></svg>