<?xml version="1.0" encoding="utf-8"?>
<svg version="1.1" xmlns:xlink="http://www.w3.org/1999/xlink" width="350px" height="50px" xmlns="http://www.w3.org/2000/svg">
  <g transform="matrix(1 0 0 1 -476 -216 )">
    <path d="M 476.5 219  A 2.5 2.5 0 0 1 479 216.5 L 823 216.5  A 2.5 2.5 0 0 1 825.5 219 L 825.5 263  A 2.5 2.5 0 0 1 823 265.5 L 479 265.5  A 2.5 2.5 0 0 1 476.5 263 L 476.5 219  Z " fill-rule="nonzero" fill="#ffffff" stroke="none" />
    <path d="M 476.5 219  A 2.5 2.5 0 0 1 479 216.5 L 823 216.5  A 2.5 2.5 0 0 1 825.5 219 L 825.5 263  A 2.5 2.5 0 0 1 823 265.5 L 479 265.5  A 2.5 2.5 0 0 1 476.5 263 L 476.5 219  Z " stroke-width="1" stroke="#0079fe" fill="none" />
  </g>
</svg>